{"title":"Your.Highness.2011.Theatrical.Cut.DVDRip.XviD-EXViD","uid":6976778,"size":744440402,"categoryP":"video","categoryS":"movies","magnet":"?xt=urn:btih:9548247145cc24fff566b361153723dd4b1634c6&amp;dn=Your.Highness.2011.Theatrical.Cut.DVDRip.XviD-EXViD&amp;tr=udp%3A%2F%2Ftracker.openbittorrent.com%3A80&amp;tr=udp%3A%2F%2Fopen.demonii.com%3A1337&amp;tr=udp%3A%2F%2Ftracker.coppersurfer.tk%3A6969&amp;tr=udp%3A%2F%2Fexodus.desync.com%3A6969","seeders":1,"leechers":0,"uploader":"TvTeam","files":9,"time":1327281709,"description":". \n &lt;a href=&quot;\nhttp://www.torrenting.com&quot; rel=&quot;nofollow&quot; target=&quot;_NEW&quot;&gt;\nhttp://www.torrenting.com&lt;/a&gt;          :     Once &amp; For all ;)\n\n\n               www . Torrenting . Com \n\n(((((((((((((= Enjoy No RAR releases =))))))))))))))))))))\n\n\n...................................NFO:....................................\n\n.                                                                                                     \n       \n     \n     \n       \n       \n     \n     \n                                         \n                                         \n                EXVID                    \n                                         \n         \n                                         \n         Filled the Archives             \n                                         \n         \n                                         \n                With:                    \n                                         \n         \n                                         \n                                    \n     E240                           \n                                    \n     SP               (C) 2009      \n                                         \n     \n     \n     \n                                                                                  \n                                                                                   \n           Your.Highness.2011.Theatrical.Cut.DVDRip.XviD-EXViD                      \n                                                                                   \n                                                                                  \n     \n                                                                                               \nEXViD aims to iNTERNAL those releases which have been lost in the archives.\nEXViD aims to PRE non-internal releases which have poor sources and are likely skipped by others. &lt;a href=&quot;\nhttp://www.imdb.com/title/tt1240982/&quot; rel=&quot;nofollow&quot; target=&quot;_NEW&quot;&gt;\nhttp://www.imdb.com/title/tt1240982/&lt;/a&gt;\nSubtitles: EN, DE, TR, NL, DK, FI, GR, NO, SV\nDate: 2012.01\n\nDirector: David Gordon Green\n\nGenres: Adventure | Comedy | Fantasy\n\nPlot:\nThroughout history, tales of chivalry have burnished the legends of brave, handsome knights who\nrescue fair damsels, slay dragons and conquer evil. But behind many a hero is a good-for-nothing\nyounger brother trying just to stay out of the way of those dragons, evil and trouble in general.\nAs two princes on a daring mission to save their land, they must rescue the heir apparent's\nfiance before their kingdom is destroyed. Thadeous (McBride) has spent his life watching his\nperfect older brother Fabious (Franco) embark upon valiant journeys and win the hearts of his\npeople. Tired of being passed over for adventure, adoration and the throne, he's settled for a\nlife of wizard's weed, hard booze and easy maidens. But when Fabious' bride-to-be, Belladonna\n(Zooey Deschanel), gets kidnapped by the evil wizard Leezar (Justin Theroux), the king gives his\ndeadbeat son an ultimatum: Man up and help rescue her or get cut off... \n\nCast:\nDanny McBride \t ... \tThadeous \nJames Franco \t ... \tFabious \nRasmus Hardiker \t ... \tCourtney \nNatalie Portman \t ... \tIsabel \nToby Jones \t ... \tJulie \nJustin Theroux \t ... \tLeezar \nZooey Deschanel \t ... \tBelladonna \nCharles Dance \t ... \tKing Tallious \nDamian Lewis \t ... \tBoremont \nSimon Farnaby \t ... \tManious the Bold \nDeobia Oparei \t ... \t Thundarian \nB.J. Hogg \t ... \t Royal Advisor \nMatyelok Gibbs \t ... \tMother \nAngela Pleasence \t ... \tMother \nAnna Barry \t ... \tMother\n\nStats:\nFormat                           : AVI\nFormat/Info                      : Audio Video Interleave\nFile size                        : 699 MiB\nDuration                         : 1h 38mn\nOverall bit rate                 : 996 Kbps\nWriting application              : VirtualDubMod 1.5.10.2 (build 2540/release)\nWriting library                  : VirtualDubMod build 2540/release\n\nVideo\nID                               : 0\nFormat                           : MPEG-4 Visual\nFormat profile                   : Advanced Simple@L5\nFormat settings, BVOP            : Yes\nFormat settings, QPel            : No\nFormat settings, GMC             : No warppoints\nFormat settings, Matrix          : Default (H.263)\nMuxing mode                      : Packed bitstream\nCodec ID                         : XVID\nCodec ID/Hint                    : XviD\nDuration                         : 1h 38mn\nBit rate                         : 861 Kbps\nWidth                            : 640 pixels\nHeight                           : 272 pixels\nDisplay aspect ratio             : 2.35:1\nFrame rate                       : 25.000 fps\nColor space                      : YUV\nChroma subsampling               : 4:2:0\nBit depth                        : 8 bits\nScan type                        : Progressive\nBits/(Pixel*Frame)               : 0.198\nStream size                      : 604 MiB (86%)\nWriting library                  : XviD 62\n\nAudio\nID                               : 1\nFormat                           : MPEG Audio\nFormat version                   : Version 1\nFormat profile                   : Layer 3\nMode                             : Joint stereo\nMode extension                   : MS Stereo\nCodec ID                         : 55\nCodec ID/Hint                    : MP3\nDuration                         : 1h 38mn\nBit rate mode                    : Constant\nBit rate                         : 32.0 Kbps\nChannel(s)                       : 2 channels\nSampling rate                    : 48.0 KHz\nStream size                      : 86.1 MiB (12%)\nAlignment                        : Aligned on interleaves\nInterleave, duration             : 24 ms (0.60 video frame)\nInterleave, preload duration     : 131 ms\nWriting library                  : LAME\n\n\n\n\nRelease notes:\nThis is the theatrical cut which is about 3 minutes shorter.\n\nSee http://www.movie-censorship.com/report.php?ID=687646 for differences.\n\nenjoy!\n\nLooking for:\n75TB+ Archives\nDUTCH/FLEMiSH Archives\n                                                                                                    \nGreets: CRBS EPiSODE FiCO FLS iLS KLASSiGER LiPSYNC MADE NODLABS RUNNER SPRiNTER      \n   \n\n                                                                    ASCII DONE BY XX^NFO 2oo9","torrent":{"xt":"urn:btih:9548247145cc24fff566b361153723dd4b1634c6","amp;dn":"Your.Highness.2011.Theatrical.Cut.DVDRip.XviD-EXViD","amp;tr":["udp%3A%2F%2Ftracker.openbittorrent.com%3A80","udp%3A%2F%2Fopen.demonii.com%3A1337","udp%3A%2F%2Ftracker.coppersurfer.tk%3A6969","udp%3A%2F%2Fexodus.desync.com%3A6969"],"infoHash":"9548247145cc24fff566b361153723dd4b1634c6","infoHashBuffer":{"type":"Buffer","data":[149,72,36,113,69,204,36,255,245,102,179,97,21,55,35,221,75,22,52,198]},"announce":[],"urlList":[]}}